<svg xmlns="http://www.w3.org/2000/svg" width="980" height="420" fill="none" viewBox="0 0 980 420"><g clip-path="url(#clip0_67_78)"><path fill="#2889de" d="M70 70H0v280h70Z"/><path fill="#f5c92c" d="M420 0h-70v420h70Z"/><path fill="#2889de" d="M210 70V0H70v70Z"/><path fill="#2889de" d="M210 140h70V70h-70Z"/><path fill="#2889de" d="M175 105h70V35h-70Z"/><path fill="#f5c92c" d="M525 385h70v-70h-70Z"/><path fill="#f5c92c" d="M560 420h70v-70h-70Z"/><path fill="#f5c92c" d="M490 350h70v-70h-70Z"/><path fill="#f5c92c" d="M560 70V0H420v70Z"/><path fill="#f5c92c" d="M560 140h70V70h-70Z"/><path fill="#f5c92c" d="M525 105h70V35h-70Z"/><path fill="#2889de" d="M35 105h70V35H35Z"/><path fill="#2889de" d="M35 385h70v-70H35Z"/><path fill="#2889de" d="M175 385h70v-70h-70Z"/><path fill="#2889de" d="M210 350v70H70v-70Z"/><path fill="#2889de" d="M210 280h70v70h-70Z"/><path fill="#f5c92c" d="M525 245h70v-70h-70Z"/><path fill="#f5c92c" d="M560 210v70H420v-70Z"/><path fill="#ee3131" d="M910 210v70H770v-70Z"/><path fill="#f5c92c" d="M560 140h70v70h-70Z"/><path fill="#ee3131" d="M700 350h70v-70h-70Z"/><path fill="#ee3131" d="M700 315h70v-70h-70Z"/><path fill="#ee3131" d="M700 245h70v-70h-70Z"/><path fill="#ee3131" d="M735 140h70V70h-70Z"/><path fill="#ee3131" d="M840 105h70V35h-70Z"/><path fill="#ee3131" d="M770 105h70V35h-70Z"/><path fill="#ee3131" d="M805 70h70V0h-70Z"/><path fill="#ee3131" d="M735 210h70v-70h-70Z"/><path fill="#ee3131" d="M700 350h70v70h-70Z"/><path fill="#ee3131" d="M980 350h-70v-70h70Z"/><path fill="#ee3131" d="M980 315h-70v-70h70Z"/><path fill="#ee3131" d="M980 245h-70v-70h70Z"/><path fill="#ee3131" d="M945 140h-70V70h70Z"/><path fill="#ee3131" d="M945 210h-70v-70h70Z"/><path fill="#ee3131" d="M980 350h-70v70h70Z"/></g><defs><clipPath id="clip0_67_78"><path fill="#fff" d="M0 0h980v420H0Z"/></clipPath></defs></svg>