<svg xmlns="http://www.w3.org/2000/svg" width="980" height="420" viewBox="0 0 980 420" fill="none">
<g clip-path="url(#clip0_67_78)">
<path d="M70 70H0V350H70V70Z" fill="#2889DE"/>
<path d="M420 0H350V420H420V0Z" fill="#F5C92C"/>
<path d="M210 70V0L70 0V70L210 70Z" fill="#2889DE"/>
<path d="M210 140H280V70L210 70V140Z" fill="#2889DE"/>
<path d="M175 105L245 105V35L175 35V105Z" fill="#2889DE"/>
<path d="M525 385H595V315H525V385Z" fill="#F5C92C"/>
<path d="M560 420H630V350H560V420Z" fill="#F5C92C"/>
<path d="M490 350H560V280H490V350Z" fill="#F5C92C"/>
<path d="M560 70V0L420 0V70L560 70Z" fill="#F5C92C"/>
<path d="M560 140H630V70L560 70V140Z" fill="#F5C92C"/>
<path d="M525 105L595 105V35L525 35V105Z" fill="#F5C92C"/>
<path d="M35 105L105 105L105 35L35 35L35 105Z" fill="#2889DE"/>
<path d="M35 385H105L105 315H35L35 385Z" fill="#2889DE"/>
<path d="M175 385H245V315H175V385Z" fill="#2889DE"/>
<path d="M210 350V420H70V350H210Z" fill="#2889DE"/>
<path d="M210 280H280V350H210V280Z" fill="#2889DE"/>
<path d="M525 245H595V175H525V245Z" fill="#F5C92C"/>
<path d="M560 210V280H420V210H560Z" fill="#F5C92C"/>
<path d="M910 210V280H770V210H910Z" fill="#EE3131"/>
<path d="M560 140H630V210H560V140Z" fill="#F5C92C"/>
<path d="M700 350H770V280H700V350Z" fill="#EE3131"/>
<path d="M700 315H770V245H700V315Z" fill="#EE3131"/>
<path d="M700 245H770V175H700V245Z" fill="#EE3131"/>
<path d="M735 140H805V70L735 70V140Z" fill="#EE3131"/>
<path d="M840 105L910 105V35L840 35V105Z" fill="#EE3131"/>
<path d="M770 105L840 105V35L770 35V105Z" fill="#EE3131"/>
<path d="M805 70L875 70V0L805 0V70Z" fill="#EE3131"/>
<path d="M735 210H805V140H735V210Z" fill="#EE3131"/>
<path d="M700 350H770V420H700V350Z" fill="#EE3131"/>
<path d="M980 350H910V280H980V350Z" fill="#EE3131"/>
<path d="M980 315H910V245H980V315Z" fill="#EE3131"/>
<path d="M980 245H910V175H980V245Z" fill="#EE3131"/>
<path d="M945 140H875V70H945V140Z" fill="#EE3131"/>
<path d="M945 210H875V140H945V210Z" fill="#EE3131"/>
<path d="M980 350H910V420H980V350Z" fill="#EE3131"/>
</g>
<defs>
<clipPath id="clip0_67_78">
<rect width="980" height="420" fill="white"/>
</clipPath>
</defs>
</svg>